<?xml version="1.0" encoding="utf-8"?>
<svg version="1.1" id="Layer_1" xmlns="http://www.w3.org/2000/svg" xmlns:xlink="http://www.w3.org/1999/xlink" x="0px" y="0px"
	 viewBox="0 0 77 20" style="enable-background:new 0 0 77 20;" xml:space="preserve">
<style type="text/css">
	.st0{fill:#00FF00;}
	.st1{fill:#FFFFFF;}
</style>
<g>
	<path class="st0" d="M27.7,3.3c-0.3-1.2-1.3-2.2-2.5-2.5c-2.2-0.6-11-0.6-11-0.6s-8.8,0-11,0.6C2,1.1,1,2.1,0.7,3.3
		c-0.6,2.2-0.6,6.8-0.6,6.8s0,4.6,0.6,6.8C1,18.1,2,19.1,3.2,19.4c2.2,0.6,11,0.6,11,0.6s8.8,0,11-0.6c1.2-0.3,2.2-1.3,2.5-2.5
		c0.6-2.2,0.6-6.8,0.6-6.8S28.3,5.5,27.7,3.3z"/>
	<path class="st1" d="M11.4,14.3l7.3-4.2l-7.3-4.2L11.4,14.3z M40.7,7.9c-0.5,2.6-0.9,5.7-1.1,7h-0.1c-0.2-1.3-0.5-4.4-1.1-7
		l-1.3-6.3h-3.9v17h2.4v-14l0.2,1.3l2.5,12.7h2.4l2.4-12.7l0.3-1.3v14h2.4V1.6h-4L40.7,7.9L40.7,7.9z M52.5,16
		c-0.2,0.5-0.7,0.8-1.2,0.8c-0.6,0-0.8-0.4-0.8-1.5V6.2h-2.8v9.3c0,2.3,0.7,3.3,2.4,3.3c1.1,0,2-0.5,2.7-1.7h0.1l0.2,1.5h2.2V6.2
		h-2.8L52.5,16L52.5,16L52.5,16z M60.7,11.1c-0.9-0.7-1.5-1.1-1.5-2.1c0-0.7,0.3-1.1,1.1-1.1c0.8,0,1,0.5,1.1,2.4l2.3-0.1
		c0.2-3-0.8-4.3-3.4-4.3c-2.4,0-3.5,1.1-3.5,3.3c0,2,1,2.9,2.5,4.1c1.3,1.1,2.1,1.6,2.1,2.5c0,0.6-0.4,1.1-1.1,1.1
		c-0.8,0-1.3-0.8-1.2-2.2l-2.4,0c-0.4,2.6,0.7,4.1,3.4,4.1c2.4,0,3.6-1.1,3.6-3.3C63.8,13.5,62.8,12.7,60.7,11.1z M65.4,6.2H68v12.4
		h-2.7V6.2z M66.7,1.3c-1,0-1.5,0.4-1.5,1.7c0,1.4,0.5,1.7,1.5,1.7c1,0,1.5-0.3,1.5-1.7C68.2,1.7,67.8,1.3,66.7,1.3z M77,14.1
		L74.5,14c0,2.2-0.2,2.9-1.1,2.9s-1-0.8-1-3.4v-2.4c0-2.5,0.2-3.3,1-3.3c0.8,0,1,0.7,1,3.1l2.4-0.2c0.2-1.9-0.1-3.2-0.8-4
		C75.5,6.2,74.7,6,73.5,6c-2.7,0-3.8,1.5-3.8,5.5v1.7c0,4.2,0.9,5.6,3.7,5.6c1.2,0,2-0.2,2.5-0.8C76.7,17.3,77,16,77,14.1L77,14.1z"
		/>
</g>
</svg>
